<?xml version="1.0" encoding="utf-8"?>
<!-- Generator: Adobe Illustrator 20.1.0, SVG Export Plug-In . SVG Version: 6.00 Build 0)  -->
<svg version="1.1" id="Capa_1" xmlns="http://www.w3.org/2000/svg" xmlns:xlink="http://www.w3.org/1999/xlink" x="0px" y="0px"
	 viewBox="0 0 595.3 285.7" style="enable-background:new 0 0 595.3 285.7;" xml:space="preserve">
<style type="text/css">
	.st0{font-family:'ArialMT';}
	.st1{font-size:12px;}
	.st2{fill:#771725;}
	.st3{fill:none;}
	.st4{fill:#3D1F07;}
	.st5{font-family:'bromello';}
	.st6{font-size:52.5456px;}
</style>
<text transform="matrix(1 0 0 1 0 -1.464844e-05)" class="st0 st1"> </text>
<path class="st2" d="M500.5,53.9c0,0-20.9-1.1-42.7-4.7c-22.2-3.6-34.8-6.2-58.1-5.5c-23.3,0.7-26.2,2.2-36.2,2.9
	c-10,0.7-44.5,10.1-53.1,11.6c-8.6,1.4-22.6,2.2-22.6,2.2s-14-0.7-22.6-2.2c-8.6-1.4-43-10.9-53.1-11.6c-10-0.7-12.9-2.1-36.2-2.9
	c-23.3-0.7-35.9,1.9-58.1,5.5c-21.8,3.5-42.7,4.7-42.7,4.7s-6.8,19.7-5,23.3c1.8,3.6,10.8,7.2,15.4,13.6c4.7,6.5,7.9,25.1,9.3,34.1
	c1.4,9,11.5,36.2,18.6,43c7.2,6.8,26.9,19.4,62,17.2c35.2-2.2,54.1-9,67.4-25.1c13.3-16.1,24.8-30.1,32.3-66c0,0,1.1-4.7,12.6-4.7
	c11.5,0,12.5,4.7,12.5,4.7c7.5,35.9,19,49.9,32.3,66c13.3,16.1,32.3,23,67.4,25.1c35.2,2.1,54.9-10.4,62-17.2
	c7.2-6.8,17.2-34.1,18.7-43c1.4-9,4.7-27.6,9.3-34.1c4.7-6.5,13.6-10,15.4-13.6C507.4,73.6,500.5,53.9,500.5,53.9z M93.4,68.6
	c-3,0-9.9-1.8-9.9-4.1c0-2.2,6.2-4.6,9.9-4c0,0,7.2,0.4,7.2,4.1C100.6,68.4,96.5,68.6,93.4,68.6z M259.9,99.8
	c-2.9,16.5-10.8,41.6-26.5,58.1c-15.8,16.5-35.5,21.5-62.8,21.5c-27.3,0-43.4-6.1-52.4-17.9c-4.3-5.7-28-57-11.5-85.4
	c16.5-28.3,87.5-21.5,87.5-21.5C259.5,61.1,262.8,83.3,259.9,99.8z M457.5,161.5c-9,11.8-25.1,17.9-52.4,17.9
	c-27.3,0-47-5-62.8-21.5c-15.8-16.5-23.7-41.6-26.5-58.1c-2.9-16.5,0.4-38.7,65.6-45.2c0,0,71-6.8,87.5,21.5
	C485.5,104.5,461.9,155.7,457.5,161.5z M482.3,68.6c-3,0-7.2-0.2-7.2-3.9c0-3.8,7.2-4.1,7.2-4.1c3.6-0.7,9.9,1.7,9.9,4
	C492.2,66.8,485.4,68.6,482.3,68.6z"/>
<rect x="51.7" y="197.6" class="st3" width="500.2" height="72.5"/>
<text transform="matrix(1 0 0 1 51.6641 235.286)" class="st4 st5 st6">Maria Jose Garro Valverde</text>
</svg>
